<?xml version="1.0" encoding="utf-8"?>
<!-- Generator: Adobe Illustrator 16.0.0, SVG Export Plug-In . SVG Version: 6.00 Build 0)  -->
<!DOCTYPE svg PUBLIC "-//W3C//DTD SVG 1.1//EN" "http://www.w3.org/Graphics/SVG/1.1/DTD/svg11.dtd">
<svg version="1.1" id="Layer_1" xmlns:sketch="http://www.bohemiancoding.com/sketch/ns"
	 xmlns="http://www.w3.org/2000/svg" xmlns:xlink="http://www.w3.org/1999/xlink" x="0px" y="0px" width="210px" height="242px"
	 viewBox="0 0 210 242" enable-background="new 0 0 210 242" xml:space="preserve">
<title>Group</title>
<desc>Created with Sketch.</desc>
<g id="Page-1" sketch:type="MSPage">
	<g id="template_toronto_COLOR" transform="translate(-252.000000, 0.000000)" sketch:type="MSLayerGroup">
		<g id="Group" transform="translate(252.000000, 0.000000)" sketch:type="MSShapeGroup">
			<path id="Shape_1_" d="M208.1,59.7L107.2,1.5c-1.101-0.7-2.6-0.7-3.7,0L2.6,59.7c-1.1,0.7-1.8,1.9-1.8,3.2v116.5
				c0,1.3,0.7,2.6,1.8,3.199l100.9,58.2c0.6,0.3,1.2,0.5,1.8,0.5c0.601,0,1.3-0.2,1.8-0.5L208,182.6c1.1-0.699,1.8-1.899,1.8-3.199
				V62.9C209.9,61.6,209.2,60.4,208.1,59.7L208.1,59.7z M202.6,177.3L105.3,233.4L8.1,177.3H8V65l97.3-56.1L202.4,65l0.199,0.1
				V177.3L202.6,177.3z"/>
			<g transform="translate(16.000000, 19.000000)">
				<g id="Shape_2_" transform="translate(0.000000, 54.000000)">
					<path d="M107.2,63.8c3.899,2.9,7,6.7,8.8,11h2.1C116,69.3,112.2,64.6,107.2,61.3V63.8L107.2,63.8z"/>
					<path d="M107.2,56.8c7.3,4,12.899,10.4,15.399,18h2.101c-2.601-8.7-9-16-17.5-20.3V56.8L107.2,56.8z"/>
					<path d="M51.7,89v2v6.2h24V91v-2v-6.2h-24V89L51.7,89z M73.7,95.2h-20V91h20V95.2L73.7,95.2z M53.7,84.8h20V89h-20V84.8
						L53.7,84.8z"/>
					<path d="M102.3,82.8V89v2v6.2h24V91v-2v-6.2H102.3L102.3,82.8z M124.4,95.2h-20V91h20V95.2L124.4,95.2z M104.3,89v-4.2h20V89
						H104.3L104.3,89z"/>
					<path d="M177,99.7L177,99.7l-0.1-7.2h0.1c0.6,0,1-0.4,1-1s-0.4-1-1-1h-44.9V80.3c0-1.6-1.3-2.899-2.899-2.899H97.3L95.6,52.1
						c2.4,0.2,4.801,0.601,7,1.301v21.3h2V45.4c-3.1-0.9-6.3-1.4-9.6-1.5l-0.5-7.4h1.2l6.7-5.2v-4.7H100l-4.2-5.1h-4.6L90.5,1.9
						c0-0.6-0.5-1.2-1.2-1.2c-0.7,0-1.2,0.5-1.2,1.2l0,0l-0.7,19.6h-4.6l-4.2,5.1h-2.4v4.7l6.7,5.2h1.2l-0.6,8.3
						c-15.7,3.4-27.9,15.3-30.5,30h2c2.5-13.6,13.8-24.5,28.3-27.9L83,51.4C71.2,54.7,62.2,63.7,59.8,74.8h2
						c2.3-10,10.4-18.1,21-21.3l-1.6,24H49.3c-1.6,0-2.9,1.3-2.9,2.9V90.6H1.5c-0.6,0-1,0.4-1,1c0,0.601,0.4,1,1,1h0.1v7.2H1.5
						c-0.6,0-1,0.4-1,1c0,0.601,0.4,1,1,1h47.7h0.1h30.2l-0.4,6.2h20.1l-0.4-6.2H129h0.1H177c0.6,0,1-0.399,1-1
						C178,100.2,177.5,99.7,177,99.7L177,99.7z M7.3,99.7H3.7v-7.2h3.6V99.7L7.3,99.7z M12.8,99.7H9.2v-7.2h3.6V99.7L12.8,99.7z
						 M18.4,99.7h-3.6v-7.2h3.6V99.7L18.4,99.7z M23.9,99.7h-3.6v-7.2h3.6V99.7L23.9,99.7z M29.5,99.7h-3.6v-7.2h3.6V99.7L29.5,99.7
						z M35.1,99.7h-3.6v-7.2h3.6V99.7L35.1,99.7z M40.6,99.7H37v-7.2h3.6V99.7L40.6,99.7z M42.6,99.7v-7.2h3.9v6.3
						c0,0.3,0.1,0.601,0.2,0.9H42.6L42.6,99.7z M102.6,47v4.4C100.3,50.8,97.9,50.3,95.4,50.2L95.1,45.9
						C97.7,46,100.2,46.4,102.6,47L102.6,47z M83.7,23.4h11.1L96.9,26H81.5L83.7,23.4L83.7,23.4z M83.6,34.5l-5.4-4.2v-1.7h22.2v1.7
						L95,34.5H83.6L83.6,34.5z M49.4,99.7c-0.5,0-0.9-0.4-0.9-0.9V80.4c0-0.5,0.4-0.9,0.9-0.9h31.8l-1.4,20.3H49.4V99.7z
						 M88.3,105.9h-6.9l4.7-69.4h2.2V105.9L88.3,105.9z M90.3,105.9V36.5h2.2l4.7,69.4H90.3L90.3,105.9z M130.1,98.8
						c0,0.5-0.399,0.9-0.899,0.9H98.8L97.4,79.4h31.8c0.5,0,0.899,0.399,0.899,0.899V98.8L130.1,98.8z M136,99.7h-4
						c0.1-0.3,0.2-0.601,0.2-0.9v-6.3h3.899v7.2H136z M141.6,99.7H138v-7.2h3.6V99.7L141.6,99.7z M147.1,99.7h-3.6v-7.2h3.6V99.7
						L147.1,99.7z M152.7,99.7H149.1v-7.2h3.601V99.7L152.7,99.7z M158.2,99.7H154.6v-7.2h3.601V99.7L158.2,99.7z M163.8,99.7h-3.6
						v-7.2h3.6V99.7L163.8,99.7z M169.3,99.7h-3.6v-7.2h3.6V99.7L169.3,99.7z M174.9,99.7H171.3v-7.2h3.601V99.7L174.9,99.7z"/>
				</g>
				<g id="Shape_3_" transform="translate(21.000000, 161.000000)">
					<path d="M135.5,0.5c-0.5-0.2-1.1,0-1.3,0.5c-0.7,1.6-2.8,2.7-5.4,2.7c-2.5,0-4.6-1-5.3-2.601c-0.1-0.3-0.3-0.5-0.5-0.6
						c-0.1-0.1-0.3-0.1-0.4-0.1c-0.1,0-0.3,0-0.399,0.1c-0.3,0.1-0.5,0.3-0.5,0.6C121,2.7,118.9,3.7,116.4,3.7
						c-2.601,0-4.7-1-5.4-2.7c-0.2-0.5-0.8-0.7-1.3-0.5s-0.7,0.8-0.5,1.3c1,2.4,3.8,3.9,7.2,3.9c2.6,0,4.899-0.9,6.3-2.4
						c1.399,1.5,3.6,2.4,6.3,2.4c3.4,0,6.2-1.5,7.2-3.9C136.2,1.3,136,0.7,135.5,0.5L135.5,0.5z"/>
					<path d="M27.1,0.5c-0.5-0.2-1.1,0-1.3,0.5c-0.7,1.6-2.8,2.7-5.4,2.7c-2.5,0-4.6-1-5.3-2.601c-0.1-0.3-0.3-0.5-0.5-0.6
						c-0.1-0.1-0.3-0.1-0.4-0.1c-0.1,0-0.3,0-0.4,0.1c-0.3,0.1-0.5,0.3-0.5,0.6C12.6,2.7,10.5,3.7,8,3.7c-2.6,0-4.7-1-5.4-2.7
						C2.4,0.5,1.8,0.3,1.3,0.5S0.6,1.3,0.8,1.8c1,2.4,3.8,3.9,7.2,3.9c2.6,0,4.9-0.9,6.3-2.4c1.4,1.5,3.6,2.4,6.3,2.4
						c3.4,0,6.2-1.5,7.2-3.9C27.8,1.3,27.6,0.7,27.1,0.5L27.1,0.5z"/>
				</g>
				<g id="Shape_4_" transform="translate(5.000000, 55.000000)">
					<path d="M144.2,77.6c-0.5,0-0.9-0.399-1-0.899c0-0.5,0.399-1,0.899-1.101l22.9-2.1c0.5,0,1,0.4,1.1,0.9
						c0.101,0.5-0.399,1-0.899,1.1L144.2,77.6L144.2,77.6L144.2,77.6z"/>
					<path d="M143.8,72.2c-0.5,0-0.899-0.3-1-0.8c-0.1-0.5,0.3-1.101,0.8-1.101l22.7-3.7c0.5-0.1,1.101,0.301,1.101,0.801
						s-0.301,1.1-0.801,1.1L143.9,72.2H143.8L143.8,72.2z"/>
					<path d="M142.6,67.2c-0.399,0-0.8-0.3-1-0.7c-0.1-0.5,0.2-1.1,0.7-1.2l22.2-5.8c0.5-0.1,1.1,0.2,1.2,0.7
						c0.1,0.5-0.2,1.1-0.7,1.2l-22.2,5.8H142.6L142.6,67.2z"/>
					<path d="M140.9,61.7c-0.4,0-0.801-0.2-0.9-0.601c-0.2-0.5,0.1-1.1,0.6-1.3l21.5-8.1c0.5-0.2,1.101,0.1,1.301,0.6
						c0.199,0.5-0.101,1.101-0.601,1.3L141.3,61.7H140.9L140.9,61.7z"/>
					<path d="M138.5,56.5c-0.4,0-0.7-0.2-0.9-0.5c-0.3-0.5-0.1-1.1,0.4-1.3l20.5-10.4c0.5-0.3,1.1-0.1,1.3,0.4s0.101,1.1-0.399,1.3
						L139,56.4C138.8,56.5,138.7,56.5,138.5,56.5L138.5,56.5z"/>
					<path d="M135.5,51.4c-0.3,0-0.6-0.2-0.8-0.5c-0.3-0.5-0.2-1.101,0.3-1.4L154.3,37c0.5-0.3,1.101-0.2,1.4,0.3s0.2,1.1-0.3,1.4
						L136.1,51.2C135.9,51.4,135.7,51.4,135.5,51.4L135.5,51.4z"/>
					<path d="M132.2,46.8c-0.3,0-0.601-0.1-0.8-0.4c-0.301-0.4-0.301-1.1,0.1-1.4l17.9-14.5c0.399-0.3,1.1-0.3,1.399,0.1
						s0.3,1.1-0.1,1.4l-17.9,14.5C132.6,46.7,132.4,46.8,132.2,46.8L132.2,46.8z"/>
					<path d="M128.3,42.3c-0.3,0-0.5-0.1-0.7-0.3c-0.399-0.4-0.399-1,0-1.4L144,24.4c0.4-0.4,1-0.4,1.4,0c0.399,0.4,0.399,1,0,1.4
						L129,42C128.8,42.2,128.6,42.3,128.3,42.3L128.3,42.3z"/>
					<path d="M124,38.5c-0.2,0-0.4-0.1-0.6-0.2c-0.4-0.4-0.5-1-0.101-1.4L137.9,19.2c0.399-0.4,1-0.5,1.399-0.1
						c0.4,0.4,0.5,1,0.101,1.4L124.8,38.2C124.6,38.3,124.3,38.5,124,38.5L124,38.5z"/>
					<path d="M119.3,35c-0.2,0-0.399-0.1-0.6-0.2c-0.5-0.3-0.601-0.9-0.3-1.4L131.1,14.3c0.301-0.5,0.9-0.6,1.4-0.3s0.6,0.9,0.3,1.4
						l-12.7,19.1C119.9,34.8,119.6,35,119.3,35L119.3,35z"/>
					<path d="M114.3,32c-0.2,0-0.3,0-0.5-0.1c-0.5-0.3-0.7-0.9-0.399-1.4L124.1,10.1c0.301-0.5,0.9-0.7,1.301-0.4
						c0.5,0.3,0.699,0.9,0.399,1.4l-10.7,20.4C115,31.8,114.7,32,114.3,32L114.3,32z"/>
					<path d="M109,29.6c-0.1,0-0.3,0-0.4-0.1c-0.5-0.2-0.8-0.8-0.6-1.3l8.6-21.3c0.2-0.5,0.801-0.8,1.301-0.6
						c0.5,0.2,0.8,0.8,0.6,1.3l-8.6,21.3C109.8,29.3,109.4,29.6,109,29.6L109,29.6z"/>
					<path d="M106.3,17.6H106c-0.5-0.2-0.8-0.7-0.7-1.2L108.9,4.3c0.199-0.5,0.699-0.8,1.199-0.7c0.5,0.2,0.801,0.7,0.7,1.2
						l-3.6,12.1C107.2,17.4,106.8,17.6,106.3,17.6L106.3,17.6z"/>
					<path d="M99.7,15.4h-0.2c-0.5-0.1-0.9-0.6-0.8-1.2L101,2.4c0.1-0.5,0.6-0.9,1.2-0.8c0.5,0.1,0.899,0.6,0.8,1.2l-2.3,11.8
						C100.6,15,100.2,15.4,99.7,15.4L99.7,15.4z"/>
					<path d="M92.7,14.4L92.7,14.4c-0.601-0.1-1-0.5-1-1.1l1.1-12c0.101-0.5,0.5-1,1.101-0.9c0.5,0.1,1,0.5,0.899,1.1l-1.1,12
						C93.7,14,93.3,14.4,92.7,14.4L92.7,14.4z"/>
					<path d="M167.6,82.8h-23c-0.6,0-1-0.399-1-1c0-0.6,0.4-1,1-1h23c0.601,0,1,0.4,1,1C168.6,82.4,168.1,82.8,167.6,82.8
						L167.6,82.8z"/>
					<path d="M144.2,77.6c-0.5,0-0.9-0.399-1-0.899c0-0.5,0.399-1,0.899-1.101l22.9-2.1c0.5,0,1,0.4,1.1,0.9
						c0.101,0.5-0.399,1-0.899,1.1L144.2,77.6L144.2,77.6L144.2,77.6z"/>
					<path d="M143.8,72.2c-0.5,0-0.899-0.3-1-0.8c-0.1-0.5,0.3-1.101,0.8-1.101l22.7-3.7c0.5-0.1,1.101,0.301,1.101,0.801
						s-0.301,1.1-0.801,1.1L143.9,72.2H143.8L143.8,72.2z"/>
					<path d="M142.6,67.2c-0.399,0-0.8-0.3-1-0.7c-0.1-0.5,0.2-1.1,0.7-1.2l22.2-5.8c0.5-0.1,1.1,0.2,1.2,0.7
						c0.1,0.5-0.2,1.1-0.7,1.2l-22.2,5.8H142.6L142.6,67.2z"/>
					<path d="M140.9,61.7c-0.4,0-0.801-0.2-0.9-0.601c-0.2-0.5,0.1-1.1,0.6-1.3l21.5-8.1c0.5-0.2,1.101,0.1,1.301,0.6
						c0.199,0.5-0.101,1.101-0.601,1.3L141.3,61.7H140.9L140.9,61.7z"/>
					<path d="M138.5,56.5c-0.4,0-0.7-0.2-0.9-0.5c-0.3-0.5-0.1-1.1,0.4-1.3l20.5-10.4c0.5-0.3,1.1-0.1,1.3,0.4s0.101,1.1-0.399,1.3
						L139,56.4C138.8,56.5,138.7,56.5,138.5,56.5L138.5,56.5z"/>
					<path d="M135.5,51.4c-0.3,0-0.6-0.2-0.8-0.5c-0.3-0.5-0.2-1.101,0.3-1.4L154.3,37c0.5-0.3,1.101-0.2,1.4,0.3s0.2,1.1-0.3,1.4
						L136.1,51.2C135.9,51.4,135.7,51.4,135.5,51.4L135.5,51.4z"/>
					<path d="M132.2,46.8c-0.3,0-0.601-0.1-0.8-0.4c-0.301-0.4-0.301-1.1,0.1-1.4l17.9-14.5c0.399-0.3,1.1-0.3,1.399,0.1
						s0.3,1.1-0.1,1.4l-17.9,14.5C132.6,46.7,132.4,46.8,132.2,46.8L132.2,46.8z"/>
					<path d="M128.3,42.3c-0.3,0-0.5-0.1-0.7-0.3c-0.399-0.4-0.399-1,0-1.4L144,24.4c0.4-0.4,1-0.4,1.4,0c0.399,0.4,0.399,1,0,1.4
						L129,42C128.8,42.2,128.6,42.3,128.3,42.3L128.3,42.3z"/>
					<path d="M124,38.5c-0.2,0-0.4-0.1-0.6-0.2c-0.4-0.4-0.5-1-0.101-1.4L137.9,19.2c0.399-0.4,1-0.5,1.399-0.1
						c0.4,0.4,0.5,1,0.101,1.4L124.8,38.2C124.6,38.3,124.3,38.5,124,38.5L124,38.5z"/>
					<path d="M119.3,35c-0.2,0-0.399-0.1-0.6-0.2c-0.5-0.3-0.601-0.9-0.3-1.4L131.1,14.3c0.301-0.5,0.9-0.6,1.4-0.3s0.6,0.9,0.3,1.4
						l-12.7,19.1C119.9,34.8,119.6,35,119.3,35L119.3,35z"/>
					<path d="M114.3,32c-0.2,0-0.3,0-0.5-0.1c-0.5-0.3-0.7-0.9-0.399-1.4L124.1,10.1c0.301-0.5,0.9-0.7,1.301-0.4
						c0.5,0.3,0.699,0.9,0.399,1.4l-10.7,20.4C115,31.8,114.7,32,114.3,32L114.3,32z"/>
					<path d="M109,29.6c-0.1,0-0.3,0-0.4-0.1c-0.5-0.2-0.8-0.8-0.6-1.3l8.6-21.3c0.2-0.5,0.801-0.8,1.301-0.6
						c0.5,0.2,0.8,0.8,0.6,1.3l-8.6,21.3C109.8,29.3,109.4,29.6,109,29.6L109,29.6z"/>
					<path d="M106.3,17.6H106c-0.5-0.2-0.8-0.7-0.7-1.2L108.9,4.3c0.199-0.5,0.699-0.8,1.199-0.7c0.5,0.2,0.801,0.7,0.7,1.2
						l-3.6,12.1C107.2,17.4,106.8,17.6,106.3,17.6L106.3,17.6z"/>
					<path d="M99.7,15.4h-0.2c-0.5-0.1-0.9-0.6-0.8-1.2L101,2.4c0.1-0.5,0.6-0.9,1.2-0.8c0.5,0.1,0.899,0.6,0.8,1.2l-2.3,11.8
						C100.6,15,100.2,15.4,99.7,15.4L99.7,15.4z"/>
					<path d="M92.7,14.4L92.7,14.4c-0.601-0.1-1-0.5-1-1.1l1.1-12c0.101-0.5,0.5-1,1.101-0.9c0.5,0.1,1,0.5,0.899,1.1l-1.1,12
						C93.7,14,93.3,14.4,92.7,14.4L92.7,14.4z"/>
					<path d="M167.6,82.8h-23c-0.6,0-1-0.399-1-1c0-0.6,0.4-1,1-1h23c0.601,0,1,0.4,1,1C168.6,82.4,168.1,82.8,167.6,82.8
						L167.6,82.8z"/>
					<path d="M24.4,77.6C24.4,77.6,24.3,77.6,24.4,77.6l-23-2.1c-0.5,0-1-0.5-0.9-1.1c0.1-0.5,0.5-1,1.1-0.9l22.9,2.1
						c0.5,0,1,0.5,0.9,1.101C25.3,77.2,24.9,77.6,24.4,77.6L24.4,77.6z"/>
					<path d="M24.8,72.2h-0.2L1.9,68.5c-0.5-0.1-0.9-0.6-0.8-1.1s0.6-0.9,1.1-0.801l22.7,3.7c0.5,0.101,0.9,0.601,0.8,1.101
						C25.7,71.9,25.3,72.2,24.8,72.2L24.8,72.2z"/>
					<path d="M26,67.2h-0.3L3.5,61.4C3,61.3,2.6,60.7,2.8,60.2c0.1-0.5,0.7-0.8,1.2-0.7l22.2,5.8c0.5,0.101,0.9,0.7,0.7,1.2
						C26.9,66.9,26.4,67.2,26,67.2L26,67.2z"/>
					<path d="M27.7,61.7c-0.1,0-0.2,0-0.4-0.101L5.8,53.5c-0.5-0.2-0.8-0.8-0.6-1.3C5.4,51.7,6,51.4,6.5,51.6L28,59.7
						c0.5,0.2,0.8,0.8,0.6,1.3C28.5,61.5,28.1,61.7,27.7,61.7L27.7,61.7z"/>
					<path d="M30.1,56.5c-0.2,0-0.3,0-0.5-0.1L9.2,46c-0.5-0.3-0.7-0.9-0.4-1.3c0.3-0.4,0.9-0.7,1.3-0.4l20.5,10.4
						C31.1,55,31.3,55.6,31,56C30.8,56.3,30.5,56.5,30.1,56.5L30.1,56.5z"/>
					<path d="M33.1,51.4c-0.2,0-0.4-0.101-0.5-0.2L13.3,38.7c-0.5-0.3-0.6-0.9-0.3-1.4s0.9-0.6,1.4-0.3l19.3,12.5
						c0.5,0.3,0.6,0.9,0.3,1.4C33.7,51.3,33.4,51.4,33.1,51.4L33.1,51.4z"/>
					<path d="M36.4,46.8c-0.2,0-0.4-0.1-0.6-0.2L17.9,32.1c-0.4-0.3-0.5-1-0.1-1.4c0.3-0.4,1-0.5,1.4-0.1l17.9,14.5
						c0.4,0.3,0.5,1,0.1,1.4C37,46.6,36.7,46.8,36.4,46.8L36.4,46.8z"/>
					<path d="M40.3,42.3c-0.3,0-0.5-0.1-0.7-0.3L23.2,25.8c-0.4-0.4-0.4-1,0-1.4c0.4-0.4,1-0.4,1.4,0L41,40.6c0.4,0.4,0.4,1,0,1.4
						C40.8,42.2,40.5,42.3,40.3,42.3L40.3,42.3z"/>
					<path d="M44.6,38.5c-0.3,0-0.6-0.1-0.8-0.4L29.2,20.4c-0.4-0.4-0.3-1.1,0.1-1.4c0.4-0.4,1.1-0.3,1.4,0.1l14.6,17.7
						c0.4,0.4,0.3,1.1-0.1,1.4C45.1,38.4,44.8,38.5,44.6,38.5L44.6,38.5z"/>
					<path d="M49.3,35c-0.3,0-0.6-0.2-0.8-0.4L35.8,15.5c-0.3-0.5-0.2-1.1,0.3-1.4c0.5-0.3,1.1-0.2,1.4,0.3l12.7,19.1
						c0.3,0.5,0.2,1.1-0.3,1.4C49.7,34.9,49.5,35,49.3,35L49.3,35z"/>
					<path d="M54.3,32c-0.4,0-0.7-0.2-0.9-0.5L42.7,11.1c-0.3-0.5-0.1-1.1,0.4-1.4c0.5-0.3,1.1-0.1,1.4,0.4l10.7,20.4
						c0.3,0.5,0.1,1.1-0.4,1.4C54.6,32,54.5,32,54.3,32L54.3,32z"/>
					<path d="M59.6,29.6c-0.4,0-0.8-0.2-0.9-0.6L50.1,7.7c-0.2-0.5,0-1.1,0.6-1.3c0.5-0.2,1.1,0,1.3,0.6l8.6,21.3
						c0.2,0.5,0,1.1-0.6,1.3C59.9,29.5,59.7,29.6,59.6,29.6L59.6,29.6z"/>
					<path d="M62.3,17.6c-0.4,0-0.8-0.3-1-0.7L57.7,4.8c-0.2-0.5,0.1-1.1,0.7-1.2c0.5-0.2,1.1,0.1,1.2,0.7l3.6,12.1
						c0.2,0.5-0.1,1.1-0.7,1.2H62.3L62.3,17.6z"/>
					<path d="M68.9,15.4c-0.5,0-0.9-0.3-1-0.8L65.6,2.8c-0.1-0.5,0.3-1.1,0.8-1.2s1.1,0.3,1.2,0.8l2.3,11.8c0.1,0.5-0.3,1.1-0.8,1.2
						H68.9L68.9,15.4z"/>
					<path d="M75.9,14.4c-0.5,0-0.9-0.4-1-0.9l-1.1-12c-0.1-0.5,0.4-1,0.9-1.1c0.6-0.1,1,0.4,1.1,0.9l1.1,12
						C76.9,13.8,76.5,14.3,75.9,14.4L75.9,14.4L75.9,14.4z"/>
					<path d="M24,82.8H1c-0.6,0-1-0.399-1-1c0-0.6,0.4-1,1-1h23c0.6,0,1,0.4,1,1C25,82.4,24.6,82.8,24,82.8L24,82.8z"/>
				</g>
				<path id="Shape_5_" d="M131.1,24.3L89.8,0.5c-0.1-0.1-0.1-0.1-0.2-0.1l0,0h-0.1h-0.1h-0.2c0,0,0,0-0.1,0H89h-0.2l0,0
					c-0.1,0-0.1,0.1-0.2,0.1l0,0L48,23.9c-0.5,0.3-0.7,0.9-0.4,1.4c0.3,0.5,0.9,0.7,1.4,0.4L85.1,4.9L70,24.4
					c-0.3,0.4-0.3,1.1,0.2,1.4c0.4,0.3,1.1,0.3,1.4-0.2L88.3,4.2v20.9c0,0.5,0.4,1,1,1c0.601,0,1-0.4,1-1V4.2L107,25.6
					c0.2,0.3,0.5,0.4,0.8,0.4c0.2,0,0.4-0.1,0.601-0.2c0.399-0.3,0.5-1,0.199-1.4L93.3,4.8L130.1,26c0.2,0.1,0.301,0.1,0.5,0.1
					c0.301,0,0.7-0.2,0.9-0.5C131.7,25.2,131.6,24.5,131.1,24.3L131.1,24.3z"/>
				<g id="Shape_6_" transform="translate(38.000000, 31.000000)">
					<path d="M102.1,18.3H0.7V0.1H102.1V18.3L102.1,18.3z M2.7,16.3H100.1V2.1H2.7V16.3L2.7,16.3z"/>
					<g transform="translate(16.000000, 5.000000)">
						<path d="M1.6,8C2,8,2.3,7.7,2.3,7.2V3.3l2.9,4.1c0.2,0.3,0.4,0.5,0.7,0.5l0,0c0.4,0,0.7-0.3,0.7-0.8V1.4
							c0-0.4-0.3-0.8-0.7-0.8S5.2,0.9,5.2,1.4v3.7l-2.8-4C2.2,0.8,2,0.6,1.7,0.6H1.6c-0.4,0-0.7,0.3-0.7,0.8v5.7
							C0.9,7.7,1.2,8,1.6,8L1.6,8z"/>
						<path d="M11.5,8.1c2,0,3.5-1.7,3.5-3.7l0,0c0-2.1-1.4-3.7-3.5-3.7C9.5,0.7,8,2.4,8,4.4l0,0C8,6.4,9.5,8.1,11.5,8.1L11.5,8.1z
							 M9.6,4.4c0-1.3,0.8-2.2,2-2.2c1.1,0,2,1,2,2.3l0,0c0,1.3-0.8,2.2-2,2.2C10.4,6.6,9.6,5.6,9.6,4.4L9.6,4.4L9.6,4.4z"/>
						<path d="M17.1,8h1.8c2.1,0,3.5-1.6,3.5-3.6l0,0c0-2-1.4-3.6-3.5-3.6h-1.8c-0.4,0-0.7,0.3-0.7,0.8v5.5C16.4,7.6,16.7,8,17.1,8
							L17.1,8z M17.8,2.2h1.1c1.2,0,2,0.9,2,2.2l0,0c0,1.3-0.8,2.2-2,2.2h-1.1V2.2L17.8,2.2z"/>
						<path d="M24.4,8h3.7c0.3,0,0.6-0.3,0.6-0.7c0-0.4-0.3-0.7-0.6-0.7h-3V5h2.5c0.3,0,0.6-0.3,0.6-0.7c0-0.4-0.3-0.7-0.6-0.7h-2.5
							V2.1H28c0.3,0,0.6-0.3,0.6-0.7S28.3,0.7,28,0.7h-3.6c-0.4,0-0.7,0.3-0.7,0.8v5.6C23.7,7.6,24,8,24.4,8L24.4,8z"/>
						<path d="M29.9,7.2c0.7,0.6,1.6,0.9,2.5,0.9c1.4,0,2.4-0.8,2.4-2.2l0,0c0-1.3-0.7-1.8-2.1-2.2c-1.1-0.3-1.4-0.5-1.4-0.9l0,0
							c0-0.3,0.3-0.7,0.8-0.7c0.4,0,0.9,0.2,1.4,0.5c0.1,0.1,0.2,0.1,0.3,0.1c0.4,0,0.7-0.3,0.7-0.7c0-0.3-0.1-0.5-0.3-0.7
							c-0.6-0.4-1.3-0.7-2.1-0.7c-1.3,0-2.3,0.9-2.3,2.2l0,0c0,1.4,0.8,1.8,2.2,2.2c1.1,0.3,1.3,0.5,1.3,0.9l0,0
							c0,0.4-0.3,0.7-0.9,0.7s-1.2-0.3-1.7-0.7c-0.1-0.1-0.2-0.2-0.4-0.2c-0.4,0-0.7,0.3-0.7,0.7C29.6,6.9,29.8,7.1,29.9,7.2
							L29.9,7.2z"/>
						<path d="M39.1,8.1c1,0,1.7-0.3,2.301-0.9C41.5,7.1,41.6,6.9,41.6,6.7C41.6,6.3,41.3,6,40.9,6C40.8,6,40.6,6.1,40.5,6.2
							c-0.4,0.4-0.8,0.5-1.4,0.5c-1.1,0-1.899-1-1.899-2.3l0,0c0-1.3,0.8-2.2,1.899-2.2c0.5,0,0.9,0.2,1.301,0.5
							C40.5,2.8,40.6,2.9,40.8,2.9c0.4,0,0.7-0.3,0.7-0.8c0-0.3-0.1-0.5-0.3-0.7C40.7,1,40,0.7,39,0.7c-2,0-3.4,1.7-3.4,3.7l0,0
							C35.8,6.4,37.3,8.1,39.1,8.1L39.1,8.1z"/>
						<path d="M43.8,8c0.4,0,0.7-0.3,0.7-0.8V5h2.7v2.2c0,0.4,0.3,0.8,0.7,0.8C48.3,8,48.6,7.7,48.6,7.2V1.5
							c0-0.4-0.3-0.8-0.699-0.8c-0.4,0-0.7,0.3-0.7,0.8v2.1h-2.7V1.5c0-0.4-0.3-0.8-0.7-0.8c-0.399,0-0.7,0.3-0.7,0.8v5.7
							C43,7.7,43.3,8,43.8,8L43.8,8z"/>
						<path d="M53.4,8.1c2,0,3.5-1.7,3.5-3.7l0,0c0-2.1-1.4-3.7-3.5-3.7c-2,0-3.5,1.7-3.5,3.7l0,0C49.9,6.4,51.4,8.1,53.4,8.1
							L53.4,8.1z M51.4,4.4c0-1.3,0.8-2.2,2-2.2c1.1,0,2,1,2,2.3l0,0c0,1.3-0.801,2.2-2,2.2C52.3,6.6,51.4,5.6,51.4,4.4L51.4,4.4
							L51.4,4.4z"/>
						<path d="M61.4,8.1c2,0,3.5-1.7,3.5-3.7l0,0c0-2.1-1.4-3.7-3.5-3.7c-2,0-3.5,1.7-3.5,3.7l0,0C57.9,6.4,59.4,8.1,61.4,8.1
							L61.4,8.1z M59.4,4.4c0-1.3,0.8-2.2,2-2.2c1.1,0,2,1,2,2.3l0,0c0,1.3-0.801,2.2-2,2.2C60.3,6.6,59.4,5.6,59.4,4.4L59.4,4.4
							L59.4,4.4z"/>
						<path d="M67,8h3.4C70.7,8,71,7.7,71,7.3c0-0.4-0.3-0.7-0.6-0.7h-2.7v-5c0-0.4-0.3-0.8-0.7-0.8s-0.7,0.3-0.7,0.8v5.6
							C66.2,7.6,66.6,8,67,8L67,8z"/>
					</g>
				</g>
				<g transform="translate(43.000000, 166.000000)">
					<path id="Shape_7_" d="M87.8,12.1C87.5,11.6,86.9,11.4,86.4,11.7l-36,20.8l15.3-19.6c0.3-0.4,0.3-1.101-0.2-1.4
						c-0.4-0.3-1.1-0.3-1.4,0.2L47.4,33.1V12.2c0-0.5-0.4-1-1-1s-1,0.399-1,1V33.1L28.7,11.7c-0.3-0.4-1-0.5-1.4-0.2
						c-0.4,0.3-0.5,1-0.2,1.4l15.3,19.6L5.6,11.3c-0.5-0.3-1.1-0.1-1.4,0.4c-0.3,0.5-0.1,1.1,0.4,1.399L45.9,36.9H46
						c0.1,0,0.1,0.1,0.1,0.1h0.1h0.1h0.1c0.1,0,0.2,0.1,0.2,0.1l0,0c0.101,0,0.2,0,0.2-0.1H46.9H47c0.1,0,0.1-0.1,0.1-0.1H47.2
						l40.6-23.4C87.9,13.2,88.1,12.6,87.8,12.1L87.8,12.1z"/>
					<circle id="Oval" cx="90.5" cy="10.2" r="1.3"/>
					<circle id="Oval_1_" cx="1.6" cy="10.2" r="1.3"/>
					<g id="Shape_8_" transform="translate(19.000000, 0.000000)">
						<path d="M24.1,3.4L24.1,3.4c0-1.7,1.4-3.2,3.3-3.2s3.2,1.399,3.2,3.2l0,0C30.6,5.1,29.2,6.6,27.3,6.6
							C25.5,6.5,24.1,5.1,24.1,3.4L24.1,3.4z M29.1,3.4L29.1,3.4c0-1.101-0.8-2-1.8-2S25.5,2.3,25.5,3.3l0,0c0,1,0.8,1.9,1.8,1.9
							C28.4,5.3,29.1,4.4,29.1,3.4L29.1,3.4z"/>
						<path d="M50,3.5c0.2-0.3,0.6-0.4,0.9-0.2L52.6,4.5c0.601,0.4,1,1,1.101,1.5c0.1,0.5,0,1-0.4,1.5l0,0c-0.6,0.8-1.3,1-2,0.8
							L51.4,9.8c0,0.2,0,0.4-0.101,0.5c-0.2,0.3-0.6,0.3-0.899,0.101C50.1,10.2,50.1,10,50.1,9.8L50,7.7L49.1,7.1L48.4,8.2
							C48.2,8.5,47.8,8.6,47.5,8.4c-0.3-0.2-0.4-0.601-0.2-0.9L50,3.5L50,3.5z M50.9,6.9c0.5,0.399,1,0.3,1.3-0.101l0,0
							c0.3-0.5,0.2-0.899-0.3-1.3L50.8,4.8l-1,1.4L50.9,6.9L50.9,6.9z"/>
						<path d="M2.7,6l-1,0.8C1.5,7,1.1,7,0.9,6.7C0.7,6.5,0.7,6.1,1,5.9l3-2.5c0.2-0.2,0.6-0.2,0.8,0.1C5,3.8,5,4.1,4.7,4.3l-1,0.8
							l2.7,3.2C6.6,8.6,6.6,9,6.3,9.2C6,9.4,5.6,9.4,5.4,9.1L2.7,6L2.7,6z"/>
					</g>
				</g>
			</g>
		</g>
	</g>
</g>
</svg>
