<?xml version="1.0" encoding="UTF-8" standalone="no"?>
<svg width="1447px" height="480px" viewBox="0 0 1447 480" version="1.1" xmlns="http://www.w3.org/2000/svg" xmlns:xlink="http://www.w3.org/1999/xlink" xmlns:sketch="http://www.bohemiancoding.com/sketch/ns">
    <!-- Generator: Sketch 3.3.2 (12043) - http://www.bohemiancoding.com/sketch -->
    <title>schoolhouse</title>
    <desc>Created with Sketch.</desc>
    <defs></defs>
    <g id="Page-1" stroke="none" stroke-width="1" fill="none" fill-rule="evenodd" sketch:type="MSPage">
        <g id="schoolhouse" sketch:type="MSLayerGroup" fill="#FFFFFF">
            <path d="M1441.5,465 L1240.5,465 C1237.7,465 1235.4,462.7 1235.4,459.9 L1235.4,149.1 C1235.4,146.3 1237.7,144 1240.5,144 L1441.5,144 C1444.3,144 1446.6,146.3 1446.6,149.1 L1446.6,460 C1446.5,462.8 1444.3,465 1441.5,465 L1441.5,465 Z M1245.5,454.9 L1436.4,454.9 L1436.4,154.2 L1245.5,154.2 L1245.5,454.9 L1245.5,454.9 Z" id="Shape" sketch:type="MSShapeGroup"></path>
            <path d="M1418.3,154.2 C1415.5,154.2 1413.2,151.9 1413.2,149.1 L1413.2,113.6 L1268.8,113.6 L1268.8,149.1 C1268.8,151.9 1266.5,154.2 1263.7,154.2 C1260.9,154.2 1258.6,151.9 1258.6,149.1 L1258.6,108.6 C1258.6,105.8 1260.9,103.5 1263.7,103.5 L1418.3,103.5 C1421.1,103.5 1423.4,105.8 1423.4,108.6 L1423.4,149.1 C1423.3,151.9 1421.1,154.2 1418.3,154.2 L1418.3,154.2 Z" id="Shape" sketch:type="MSShapeGroup"></path>
            <path d="M1365.7,270.4 L1311.5,270.4 C1309.7,270.4 1308,269.4 1307.1,267.9 L1280,221 C1279.1,219.4 1279.1,217.5 1280,215.9 L1307.1,169 C1308,167.4 1309.7,166.5 1311.5,166.5 L1365.7,166.5 C1367.5,166.5 1369.2,167.5 1370.1,169 L1397.2,215.9 C1398.1,217.5 1398.1,219.4 1397.2,221 L1370.1,267.9 C1369.2,269.4 1367.5,270.4 1365.7,270.4 L1365.7,270.4 Z M1314.5,260.3 L1362.8,260.3 L1387,218.4 L1362.8,176.5 L1314.5,176.5 L1290.3,218.4 L1314.5,260.3 L1314.5,260.3 Z" id="Shape" sketch:type="MSShapeGroup"></path>
            <path d="M1338.6,270.4 C1335.8,270.4 1333.5,268.1 1333.5,265.3 L1333.5,171.4 C1333.5,168.6 1335.8,166.3 1338.6,166.3 C1341.4,166.3 1343.7,168.6 1343.7,171.4 L1343.7,265.3 C1343.7,268.1 1341.4,270.4 1338.6,270.4 L1338.6,270.4 Z" id="Shape" sketch:type="MSShapeGroup"></path>
            <path d="M1392.8,223.5 L1284.4,223.5 C1281.6,223.5 1279.3,221.2 1279.3,218.4 C1279.3,215.6 1281.6,213.3 1284.4,213.3 L1392.8,213.3 C1395.6,213.3 1397.9,215.6 1397.9,218.4 C1397.9,221.2 1395.6,223.5 1392.8,223.5 L1392.8,223.5 Z" id="Shape" sketch:type="MSShapeGroup"></path>
            <path d="M1380.5,202.1 L1296.8,202.1 C1294,202.1 1291.7,199.8 1291.7,197 C1291.7,194.2 1294,191.9 1296.8,191.9 L1380.5,191.9 C1383.3,191.9 1385.6,194.2 1385.6,197 C1385.5,199.8 1383.3,202.1 1380.5,202.1 L1380.5,202.1 Z" id="Shape" sketch:type="MSShapeGroup"></path>
            <path d="M1380.5,243.2 L1296.8,243.2 C1294,243.2 1291.7,240.9 1291.7,238.1 C1291.7,235.3 1294,233 1296.8,233 L1380.5,233 C1383.3,233 1385.6,235.3 1385.6,238.1 C1385.6,240.9 1383.3,243.2 1380.5,243.2 L1380.5,243.2 Z" id="Shape" sketch:type="MSShapeGroup"></path>
            <path d="M1418.5,405.3 L1265.9,405.3 C1263.1,405.3 1260.8,403 1260.8,400.2 L1260.8,329.2 C1260.8,326.4 1263.1,324.1 1265.9,324.1 L1418.5,324.1 C1421.3,324.1 1423.6,326.4 1423.6,329.2 L1423.6,400.2 C1423.5,403.1 1421.3,405.3 1418.5,405.3 L1418.5,405.3 Z M1270.9,395.2 L1413.4,395.2 L1413.4,334.4 L1270.9,334.4 L1270.9,395.2 L1270.9,395.2 Z" id="Shape" sketch:type="MSShapeGroup"></path>
            <path d="M1418.5,369.9 L1265.9,369.9 C1263.1,369.9 1260.8,367.6 1260.8,364.8 C1260.8,362 1263.1,359.7 1265.9,359.7 L1418.5,359.7 C1421.3,359.7 1423.6,362 1423.6,364.8 C1423.5,367.6 1421.3,369.9 1418.5,369.9 L1418.5,369.9 Z" id="Shape" sketch:type="MSShapeGroup"></path>
            <path d="M1379,405.3 C1376.2,405.3 1373.9,403 1373.9,400.2 L1373.9,329.2 C1373.9,326.4 1376.2,324.1 1379,324.1 C1381.8,324.1 1384.1,326.4 1384.1,329.2 L1384.1,400.2 C1384.1,403.1 1381.8,405.3 1379,405.3 L1379,405.3 Z" id="Shape" sketch:type="MSShapeGroup"></path>
            <path d="M1305.3,405.3 C1302.5,405.3 1300.2,403 1300.2,400.2 L1300.2,329.2 C1300.2,326.4 1302.5,324.1 1305.3,324.1 C1308.1,324.1 1310.4,326.4 1310.4,329.2 L1310.4,400.2 C1310.3,403.1 1308.1,405.3 1305.3,405.3 L1305.3,405.3 Z" id="Shape" sketch:type="MSShapeGroup"></path>
            <path d="M1342.2,405.3 C1339.4,405.3 1337.1,403 1337.1,400.2 L1337.1,329.2 C1337.1,326.4 1339.4,324.1 1342.2,324.1 C1345,324.1 1347.3,326.4 1347.3,329.2 L1347.3,400.2 C1347.2,403.1 1345,405.3 1342.2,405.3 L1342.2,405.3 Z" id="Shape" sketch:type="MSShapeGroup"></path>
            <path d="M1240.5,465 L1039.5,465 C1036.7,465 1034.4,462.7 1034.4,459.9 L1034.4,149.1 C1034.4,146.3 1036.7,144 1039.5,144 L1240.5,144 C1243.3,144 1245.6,146.3 1245.6,149.1 L1245.6,460 C1245.5,462.8 1243.3,465 1240.5,465 L1240.5,465 Z M1044.5,454.9 L1235.4,454.9 L1235.4,154.2 L1044.5,154.2 L1044.5,454.9 L1044.5,454.9 Z" id="Shape" sketch:type="MSShapeGroup"></path>
            <path d="M1217.2,154.2 C1214.4,154.2 1212.1,151.9 1212.1,149.1 L1212.1,113.6 L1067.7,113.6 L1067.7,149.1 C1067.7,151.9 1065.4,154.2 1062.6,154.2 C1059.8,154.2 1057.5,151.9 1057.5,149.1 L1057.5,108.6 C1057.5,105.8 1059.8,103.5 1062.6,103.5 L1217.2,103.5 C1220,103.5 1222.3,105.8 1222.3,108.6 L1222.3,149.1 C1222.3,151.9 1220,154.2 1217.2,154.2 L1217.2,154.2 Z" id="Shape" sketch:type="MSShapeGroup"></path>
            <path d="M1164.7,270.4 L1110.5,270.4 C1108.7,270.4 1107,269.4 1106.1,267.9 L1079,221 C1078.1,219.4 1078.1,217.5 1079,215.9 L1106.1,169 C1107,167.4 1108.7,166.5 1110.5,166.5 L1164.7,166.5 C1166.5,166.5 1168.2,167.5 1169.1,169 L1196.2,215.9 C1197.1,217.5 1197.1,219.4 1196.2,221 L1169.1,267.9 C1168.2,269.4 1166.5,270.4 1164.7,270.4 L1164.7,270.4 Z M1113.4,260.3 L1161.7,260.3 L1185.9,218.4 L1161.7,176.5 L1113.4,176.5 L1089.2,218.4 L1113.4,260.3 L1113.4,260.3 Z" id="Shape" sketch:type="MSShapeGroup"></path>
            <path d="M1137.6,270.4 C1134.8,270.4 1132.5,268.1 1132.5,265.3 L1132.5,171.4 C1132.5,168.6 1134.8,166.3 1137.6,166.3 C1140.4,166.3 1142.7,168.6 1142.7,171.4 L1142.7,265.3 C1142.7,268.1 1140.4,270.4 1137.6,270.4 L1137.6,270.4 Z" id="Shape" sketch:type="MSShapeGroup"></path>
            <path d="M1191.8,223.5 L1083.4,223.5 C1080.6,223.5 1078.3,221.2 1078.3,218.4 C1078.3,215.6 1080.6,213.3 1083.4,213.3 L1191.8,213.3 C1194.6,213.3 1196.9,215.6 1196.9,218.4 C1196.9,221.2 1194.6,223.5 1191.8,223.5 L1191.8,223.5 Z" id="Shape" sketch:type="MSShapeGroup"></path>
            <path d="M1179.5,202.1 L1095.8,202.1 C1093,202.1 1090.7,199.8 1090.7,197 C1090.7,194.2 1093,191.9 1095.8,191.9 L1179.5,191.9 C1182.3,191.9 1184.6,194.2 1184.6,197 C1184.5,199.8 1182.3,202.1 1179.5,202.1 L1179.5,202.1 Z" id="Shape" sketch:type="MSShapeGroup"></path>
            <path d="M1179.5,243.2 L1095.8,243.2 C1093,243.2 1090.7,240.9 1090.7,238.1 C1090.7,235.3 1093,233 1095.8,233 L1179.5,233 C1182.3,233 1184.6,235.3 1184.6,238.1 C1184.6,240.9 1182.3,243.2 1179.5,243.2 L1179.5,243.2 Z" id="Shape" sketch:type="MSShapeGroup"></path>
            <path d="M1217.4,405.3 L1064.8,405.3 C1062,405.3 1059.7,403 1059.7,400.2 L1059.7,329.2 C1059.7,326.4 1062,324.1 1064.8,324.1 L1217.4,324.1 C1220.2,324.1 1222.5,326.4 1222.5,329.2 L1222.5,400.2 C1222.5,403.1 1220.2,405.3 1217.4,405.3 L1217.4,405.3 Z M1069.9,395.2 L1212.4,395.2 L1212.4,334.4 L1069.9,334.4 L1069.9,395.2 L1069.9,395.2 Z" id="Shape" sketch:type="MSShapeGroup"></path>
            <path d="M1217.4,369.9 L1064.8,369.9 C1062,369.9 1059.7,367.6 1059.7,364.8 C1059.7,362 1062,359.7 1064.8,359.7 L1217.4,359.7 C1220.2,359.7 1222.5,362 1222.5,364.8 C1222.5,367.6 1220.2,369.9 1217.4,369.9 L1217.4,369.9 Z" id="Shape" sketch:type="MSShapeGroup"></path>
            <path d="M1178,405.3 C1175.2,405.3 1172.9,403 1172.9,400.2 L1172.9,329.2 C1172.9,326.4 1175.2,324.1 1178,324.1 C1180.8,324.1 1183.1,326.4 1183.1,329.2 L1183.1,400.2 C1183.1,403.1 1180.8,405.3 1178,405.3 L1178,405.3 Z" id="Shape" sketch:type="MSShapeGroup"></path>
            <path d="M1104.3,405.3 C1101.5,405.3 1099.2,403 1099.2,400.2 L1099.2,329.2 C1099.2,326.4 1101.5,324.1 1104.3,324.1 C1107.1,324.1 1109.4,326.4 1109.4,329.2 L1109.4,400.2 C1109.3,403.1 1107.1,405.3 1104.3,405.3 L1104.3,405.3 Z" id="Shape" sketch:type="MSShapeGroup"></path>
            <path d="M1141.1,405.3 C1138.3,405.3 1136,403 1136,400.2 L1136,329.2 C1136,326.4 1138.3,324.1 1141.1,324.1 C1143.9,324.1 1146.2,326.4 1146.2,329.2 L1146.2,400.2 C1146.2,403.1 1143.9,405.3 1141.1,405.3 L1141.1,405.3 Z" id="Shape" sketch:type="MSShapeGroup"></path>
            <path d="M994.4,465 C991.6,465 989.3,462.7 989.3,459.9 L989.3,10.6 L457.3,10.6 L457.3,460 C457.3,462.8 455,465.1 452.2,465.1 C449.4,465.1 447.1,462.8 447.1,460 L447.1,5.5 C447.1,2.7 449.4,0.4 452.2,0.4 L994.5,0.4 C997.3,0.4 999.6,2.7 999.6,5.5 L999.6,460 C999.5,462.8 997.2,465 994.4,465 L994.4,465 Z" id="Shape" sketch:type="MSShapeGroup"></path>
            <path d="M960.7,133.9 L494.4,133.9 C491.6,133.9 489.3,131.6 489.3,128.8 L489.3,73.1 C489.3,70.3 491.6,68 494.4,68 L960.6,68 C963.4,68 965.7,70.3 965.7,73.1 L965.7,128.8 C965.7,131.6 963.5,133.9 960.7,133.9 L960.7,133.9 Z M499.5,123.8 L955.6,123.8 L955.6,78.2 L499.5,78.2 L499.5,123.8 L499.5,123.8 Z" id="Shape" sketch:type="MSShapeGroup"></path>
            <path d="M928.6,354.4 L526.5,354.4 C523.7,354.4 521.4,352.1 521.4,349.3 L521.4,154.2 L511.3,154.2 C508.5,154.2 506.2,151.9 506.2,149.1 L506.2,128.8 C506.2,126 508.5,123.7 511.3,123.7 C514.1,123.7 516.4,126 516.4,128.8 L516.4,144 L526.5,144 C529.3,144 531.6,146.3 531.6,149.1 L531.6,344.2 L923.5,344.2 L923.5,149.1 C923.5,146.3 925.8,144 928.6,144 L938.7,144 L938.7,128.8 C938.7,126 941,123.7 943.8,123.7 C946.6,123.7 948.9,126 948.9,128.8 L948.9,149.1 C948.9,151.9 946.6,154.2 943.8,154.2 L933.7,154.2 L933.7,349.3 C933.6,352.1 931.4,354.4 928.6,354.4 L928.6,354.4 Z" id="Shape" sketch:type="MSShapeGroup"></path>
            <path d="M866.1,154.2 C863.3,154.2 861,151.9 861,149.1 L861,128.8 C861,126 863.3,123.7 866.1,123.7 C868.9,123.7 871.2,126 871.2,128.8 L871.2,149.1 C871.1,151.9 868.9,154.2 866.1,154.2 L866.1,154.2 Z" id="Shape" sketch:type="MSShapeGroup"></path>
            <path d="M881.3,154.2 L866.1,154.2 C863.3,154.2 861,151.9 861,149.1 C861,146.3 863.3,144 866.1,144 L881.3,144 C884.1,144 886.4,146.3 886.4,149.1 C886.3,151.9 884.1,154.2 881.3,154.2 L881.3,154.2 Z" id="Shape" sketch:type="MSShapeGroup"></path>
            <path d="M881.3,354.4 C878.5,354.4 876.2,352.1 876.2,349.3 L876.2,149.1 C876.2,146.3 878.5,144 881.3,144 C884.1,144 886.4,146.3 886.4,149.1 L886.4,349.3 C886.3,352.1 884.1,354.4 881.3,354.4 L881.3,354.4 Z" id="Shape" sketch:type="MSShapeGroup"></path>
            <path d="M590.7,154.2 C587.9,154.2 585.6,151.9 585.6,149.1 L585.6,128.8 C585.6,126 587.9,123.7 590.7,123.7 C593.5,123.7 595.8,126 595.8,128.8 L595.8,149.1 C595.8,151.9 593.5,154.2 590.7,154.2 L590.7,154.2 Z" id="Shape" sketch:type="MSShapeGroup"></path>
            <path d="M590.7,154.2 L575.5,154.2 C572.7,154.2 570.4,151.9 570.4,149.1 C570.4,146.3 572.7,144 575.5,144 L590.7,144 C593.5,144 595.8,146.3 595.8,149.1 C595.8,151.9 593.5,154.2 590.7,154.2 L590.7,154.2 Z" id="Shape" sketch:type="MSShapeGroup"></path>
            <path d="M575.5,354.4 C572.7,354.4 570.4,352.1 570.4,349.3 L570.4,149.1 C570.4,146.3 572.7,144 575.5,144 C578.3,144 580.6,146.3 580.6,149.1 L580.6,349.3 C580.6,352.1 578.3,354.4 575.5,354.4 L575.5,354.4 Z" id="Shape" sketch:type="MSShapeGroup"></path>
            <path d="M943.8,385.6 L511.3,385.6 C508.5,385.6 506.2,383.3 506.2,380.5 L506.2,349.2 C506.2,346.4 508.5,344.1 511.3,344.1 L943.8,344.1 C946.6,344.1 948.9,346.4 948.9,349.2 L948.9,380.5 C948.8,383.4 946.6,385.6 943.8,385.6 L943.8,385.6 Z M516.4,375.5 L938.7,375.5 L938.7,354.4 L516.4,354.4 L516.4,375.5 L516.4,375.5 Z" id="Shape" sketch:type="MSShapeGroup"></path>
            <path d="M960.7,416.9 L494.4,416.9 C491.6,416.9 489.3,414.6 489.3,411.8 L489.3,380.5 C489.3,377.7 491.6,375.4 494.4,375.4 L960.6,375.4 C963.4,375.4 965.7,377.7 965.7,380.5 L965.7,411.8 C965.7,414.6 963.5,416.9 960.7,416.9 L960.7,416.9 Z M499.5,406.7 L955.6,406.7 L955.6,385.6 L499.5,385.6 L499.5,406.7 L499.5,406.7 Z" id="Shape" sketch:type="MSShapeGroup"></path>
            <path d="M977.6,448.1 L469.6,448.1 C466.8,448.1 464.5,445.8 464.5,443 L464.5,411.7 C464.5,408.9 466.8,406.6 469.6,406.6 L977.5,406.6 C980.3,406.6 982.6,408.9 982.6,411.7 L982.6,443 C982.6,445.9 980.4,448.1 977.6,448.1 L977.6,448.1 Z M474.7,438 L972.5,438 L972.5,416.9 L474.7,416.9 L474.7,438 L474.7,438 Z" id="Shape" sketch:type="MSShapeGroup"></path>
            <path d="M994.4,479.4 L452.2,479.4 C449.4,479.4 447.1,477.1 447.1,474.3 L447.1,443 C447.1,440.2 449.4,437.9 452.2,437.9 L994.5,437.9 C997.3,437.9 999.6,440.2 999.6,443 L999.6,474.3 C999.5,477.1 997.2,479.4 994.4,479.4 L994.4,479.4 Z M457.3,469.2 L989.4,469.2 L989.4,448.1 L457.3,448.1 L457.3,469.2 L457.3,469.2 Z" id="Shape" sketch:type="MSShapeGroup"></path>
            <path d="M960.7,416.9 C957.9,416.9 955.6,414.6 955.6,411.8 L955.6,380.5 C955.6,377.7 957.9,375.4 960.7,375.4 C963.5,375.4 965.8,377.7 965.8,380.5 L965.8,411.8 C965.7,414.6 963.5,416.9 960.7,416.9 L960.7,416.9 Z" id="Shape" sketch:type="MSShapeGroup"></path>
            <path d="M1039.4,465 L994.4,465 C991.6,465 989.3,462.7 989.3,459.9 L989.3,128.9 C989.3,126.1 991.6,123.8 994.4,123.8 L1062.6,123.8 C1065.4,123.8 1067.7,126.1 1067.7,128.9 L1067.7,149.2 C1067.7,152 1065.4,154.3 1062.6,154.3 C1059.8,154.3 1057.5,152 1057.5,149.2 L1057.5,134 L999.4,134 L999.4,455 L1039.3,455 C1042.1,455 1044.4,457.3 1044.4,460.1 C1044.5,462.8 1042.2,465 1039.4,465 L1039.4,465 Z" id="Shape" sketch:type="MSShapeGroup"></path>
            <path d="M206.2,465 L5.2,465 C2.4,465 0.1,462.7 0.1,459.9 L0.1,149.1 C0.1,146.3 2.4,144 5.2,144 L206.2,144 C209,144 211.3,146.3 211.3,149.1 L211.3,460 C211.3,462.8 209,465 206.2,465 L206.2,465 Z M10.2,454.9 L201.1,454.9 L201.1,154.2 L10.2,154.2 L10.2,454.9 L10.2,454.9 Z" id="Shape" sketch:type="MSShapeGroup"></path>
            <path d="M183,154.2 C180.2,154.2 177.9,151.9 177.9,149.1 L177.9,113.6 L33.5,113.6 L33.5,149.1 C33.5,151.9 31.2,154.2 28.4,154.2 C25.6,154.2 23.3,151.9 23.3,149.1 L23.3,108.6 C23.3,105.8 25.6,103.5 28.4,103.5 L183,103.5 C185.8,103.5 188.1,105.8 188.1,108.6 L188.1,149.1 C188,151.9 185.8,154.2 183,154.2 L183,154.2 Z" id="Shape" sketch:type="MSShapeGroup"></path>
            <path d="M135.1,270.4 L80.9,270.4 C79.1,270.4 77.4,269.4 76.5,267.9 L49.4,221 C48.5,219.4 48.5,217.5 49.4,215.9 L76.5,169 C77.4,167.4 79.1,166.5 80.9,166.5 L135.1,166.5 C136.9,166.5 138.6,167.5 139.5,169 L166.6,215.9 C167.5,217.5 167.5,219.4 166.6,221 L139.5,267.9 C138.6,269.4 136.9,270.4 135.1,270.4 L135.1,270.4 Z M83.8,260.3 L132.1,260.3 L156.3,218.4 L132.1,176.5 L83.8,176.5 L59.6,218.4 L83.8,260.3 L83.8,260.3 Z" id="Shape" sketch:type="MSShapeGroup"></path>
            <path d="M108,270.4 C105.2,270.4 102.9,268.1 102.9,265.3 L102.9,171.4 C102.9,168.6 105.2,166.3 108,166.3 C110.8,166.3 113.1,168.6 113.1,171.4 L113.1,265.3 C113.1,268.1 110.8,270.4 108,270.4 L108,270.4 Z" id="Shape" sketch:type="MSShapeGroup"></path>
            <path d="M162.2,223.5 L53.8,223.5 C51,223.5 48.7,221.2 48.7,218.4 C48.7,215.6 51,213.3 53.8,213.3 L162.2,213.3 C165,213.3 167.3,215.6 167.3,218.4 C167.3,221.2 165,223.5 162.2,223.5 L162.2,223.5 Z" id="Shape" sketch:type="MSShapeGroup"></path>
            <path d="M149.9,202.1 L66.2,202.1 C63.4,202.1 61.1,199.8 61.1,197 C61.1,194.2 63.4,191.9 66.2,191.9 L149.9,191.9 C152.7,191.9 155,194.2 155,197 C154.9,199.8 152.7,202.1 149.9,202.1 L149.9,202.1 Z" id="Shape" sketch:type="MSShapeGroup"></path>
            <path d="M149.9,243.2 L66.2,243.2 C63.4,243.2 61.1,240.9 61.1,238.1 C61.1,235.3 63.4,233 66.2,233 L149.9,233 C152.7,233 155,235.3 155,238.1 C155,240.9 152.7,243.2 149.9,243.2 L149.9,243.2 Z" id="Shape" sketch:type="MSShapeGroup"></path>
            <path d="M180.8,405.3 L28.2,405.3 C25.4,405.3 23.1,403 23.1,400.2 L23.1,329.2 C23.1,326.4 25.4,324.1 28.2,324.1 L180.8,324.1 C183.6,324.1 185.9,326.4 185.9,329.2 L185.9,400.2 C185.8,403.1 183.6,405.3 180.8,405.3 L180.8,405.3 Z M33.2,395.2 L175.7,395.2 L175.7,334.4 L33.2,334.4 L33.2,395.2 L33.2,395.2 Z" id="Shape" sketch:type="MSShapeGroup"></path>
            <path d="M180.8,369.9 L28.2,369.9 C25.4,369.9 23.1,367.6 23.1,364.8 C23.1,362 25.4,359.7 28.2,359.7 L180.8,359.7 C183.6,359.7 185.9,362 185.9,364.8 C185.8,367.6 183.6,369.9 180.8,369.9 L180.8,369.9 Z" id="Shape" sketch:type="MSShapeGroup"></path>
            <path d="M67.6,405.3 C64.8,405.3 62.5,403 62.5,400.2 L62.5,329.2 C62.5,326.4 64.8,324.1 67.6,324.1 C70.4,324.1 72.7,326.4 72.7,329.2 L72.7,400.2 C72.7,403.1 70.4,405.3 67.6,405.3 L67.6,405.3 Z" id="Shape" sketch:type="MSShapeGroup"></path>
            <path d="M141.4,405.3 C138.6,405.3 136.3,403 136.3,400.2 L136.3,329.2 C136.3,326.4 138.6,324.1 141.4,324.1 C144.2,324.1 146.5,326.4 146.5,329.2 L146.5,400.2 C146.4,403.1 144.2,405.3 141.4,405.3 L141.4,405.3 Z" id="Shape" sketch:type="MSShapeGroup"></path>
            <path d="M104.5,405.3 C101.7,405.3 99.4,403 99.4,400.2 L99.4,329.2 C99.4,326.4 101.7,324.1 104.5,324.1 C107.3,324.1 109.6,326.4 109.6,329.2 L109.6,400.2 C109.5,403.1 107.3,405.3 104.5,405.3 L104.5,405.3 Z" id="Shape" sketch:type="MSShapeGroup"></path>
            <path d="M407.2,465 L206.2,465 C203.4,465 201.1,462.7 201.1,459.9 L201.1,149.1 C201.1,146.3 203.4,144 206.2,144 L407.2,144 C410,144 412.3,146.3 412.3,149.1 L412.3,460 C412.3,462.8 410,465 407.2,465 L407.2,465 Z M211.3,454.9 L402.2,454.9 L402.2,154.2 L211.3,154.2 L211.3,454.9 L211.3,454.9 Z" id="Shape" sketch:type="MSShapeGroup"></path>
            <path d="M384,154.2 C381.2,154.2 378.9,151.9 378.9,149.1 L378.9,113.6 L234.5,113.6 L234.5,149.1 C234.5,151.9 232.2,154.2 229.4,154.2 C226.6,154.2 224.3,151.9 224.3,149.1 L224.3,108.6 C224.3,105.8 226.6,103.5 229.4,103.5 L384,103.5 C386.8,103.5 389.1,105.8 389.1,108.6 L389.1,149.1 C389,151.9 386.8,154.2 384,154.2 L384,154.2 Z" id="Shape" sketch:type="MSShapeGroup"></path>
            <path d="M336.1,270.4 L281.9,270.4 C280.1,270.4 278.4,269.4 277.5,267.9 L250.4,221 C249.5,219.4 249.5,217.5 250.4,215.9 L277.5,169 C278.4,167.4 280.1,166.5 281.9,166.5 L336.1,166.5 C337.9,166.5 339.6,167.5 340.5,169 L367.6,215.9 C368.5,217.5 368.5,219.4 367.6,221 L340.5,267.9 C339.6,269.4 337.9,270.4 336.1,270.4 L336.1,270.4 Z M284.9,260.3 L333.2,260.3 L357.4,218.4 L333.2,176.5 L284.9,176.5 L260.7,218.4 L284.9,260.3 L284.9,260.3 Z" id="Shape" sketch:type="MSShapeGroup"></path>
            <path d="M309,270.4 C306.2,270.4 303.9,268.1 303.9,265.3 L303.9,171.4 C303.9,168.6 306.2,166.3 309,166.3 C311.8,166.3 314.1,168.6 314.1,171.4 L314.1,265.3 C314.1,268.1 311.8,270.4 309,270.4 L309,270.4 Z" id="Shape" sketch:type="MSShapeGroup"></path>
            <path d="M363.2,223.5 L254.8,223.5 C252,223.5 249.7,221.2 249.7,218.4 C249.7,215.6 252,213.3 254.8,213.3 L363.2,213.3 C366,213.3 368.3,215.6 368.3,218.4 C368.3,221.2 366,223.5 363.2,223.5 L363.2,223.5 Z" id="Shape" sketch:type="MSShapeGroup"></path>
            <path d="M350.9,202.1 L267.2,202.1 C264.4,202.1 262.1,199.8 262.1,197 C262.1,194.2 264.4,191.9 267.2,191.9 L350.9,191.9 C353.7,191.9 356,194.2 356,197 C355.9,199.8 353.7,202.1 350.9,202.1 L350.9,202.1 Z" id="Shape" sketch:type="MSShapeGroup"></path>
            <path d="M350.9,243.2 L267.2,243.2 C264.4,243.2 262.1,240.9 262.1,238.1 C262.1,235.3 264.4,233 267.2,233 L350.9,233 C353.7,233 356,235.3 356,238.1 C356,240.9 353.7,243.2 350.9,243.2 L350.9,243.2 Z" id="Shape" sketch:type="MSShapeGroup"></path>
            <path d="M381.8,405.3 L229.2,405.3 C226.4,405.3 224.1,403 224.1,400.2 L224.1,329.2 C224.1,326.4 226.4,324.1 229.2,324.1 L381.8,324.1 C384.6,324.1 386.9,326.4 386.9,329.2 L386.9,400.2 C386.9,403.1 384.6,405.3 381.8,405.3 L381.8,405.3 Z M234.3,395.2 L376.8,395.2 L376.8,334.4 L234.3,334.4 L234.3,395.2 L234.3,395.2 Z" id="Shape" sketch:type="MSShapeGroup"></path>
            <path d="M381.8,369.9 L229.2,369.9 C226.4,369.9 224.1,367.6 224.1,364.8 C224.1,362 226.4,359.7 229.2,359.7 L381.8,359.7 C384.6,359.7 386.9,362 386.9,364.8 C386.9,367.6 384.6,369.9 381.8,369.9 L381.8,369.9 Z" id="Shape" sketch:type="MSShapeGroup"></path>
            <path d="M268.6,405.3 C265.8,405.3 263.5,403 263.5,400.2 L263.5,329.2 C263.5,326.4 265.8,324.1 268.6,324.1 C271.4,324.1 273.7,326.4 273.7,329.2 L273.7,400.2 C273.7,403.1 271.4,405.3 268.6,405.3 L268.6,405.3 Z" id="Shape" sketch:type="MSShapeGroup"></path>
            <path d="M342.4,405.3 C339.6,405.3 337.3,403 337.3,400.2 L337.3,329.2 C337.3,326.4 339.6,324.1 342.4,324.1 C345.2,324.1 347.5,326.4 347.5,329.2 L347.5,400.2 C347.5,403.1 345.2,405.3 342.4,405.3 L342.4,405.3 Z" id="Shape" sketch:type="MSShapeGroup"></path>
            <path d="M305.5,405.3 C302.7,405.3 300.4,403 300.4,400.2 L300.4,329.2 C300.4,326.4 302.7,324.1 305.5,324.1 C308.3,324.1 310.6,326.4 310.6,329.2 L310.6,400.2 C310.6,403.1 308.3,405.3 305.5,405.3 L305.5,405.3 Z" id="Shape" sketch:type="MSShapeGroup"></path>
            <path d="M452.2,465 L407.2,465 C404.4,465 402.1,462.7 402.1,459.9 C402.1,457.1 404.4,454.8 407.2,454.8 L447.1,454.8 L447.1,133.8 L389,133.8 L389,149 C389,151.8 386.7,154.1 383.9,154.1 C381.1,154.1 378.8,151.8 378.8,149 L378.8,128.7 C378.8,125.9 381.1,123.6 383.9,123.6 L452.1,123.6 C454.9,123.6 457.2,125.9 457.2,128.7 L457.2,460 C457.3,462.8 455,465 452.2,465 L452.2,465 Z" id="Shape" sketch:type="MSShapeGroup"></path>
            <path d="M783.6,353 L673.4,353 C671.6,353 669.9,352 669,350.5 L614,255.1 C613.1,253.5 613.1,251.6 614,250 L669.1,154.6 C670,153 671.7,152.1 673.5,152.1 L783.6,152.1 C785.4,152.1 787.1,153.1 788,154.6 L843.1,250 C844,251.6 844,253.5 843.1,255.1 L788,350.5 C787,352.1 785.4,353 783.6,353 L783.6,353 Z M676.4,342.9 L780.7,342.9 L832.8,252.6 L780.7,162.3 L676.4,162.3 L624.3,252.6 L676.4,342.9 L676.4,342.9 Z" id="Shape" sketch:type="MSShapeGroup"></path>
            <path d="M685.9,353 C683.1,353 680.8,350.7 680.8,347.9 L680.8,157.2 C680.8,154.4 683.1,152.1 685.9,152.1 C688.7,152.1 691,154.4 691,157.2 L691,348 C690.9,350.8 688.7,353 685.9,353 L685.9,353 Z" id="Shape" sketch:type="MSShapeGroup"></path>
            <path d="M770.3,353 C767.5,353 765.2,350.7 765.2,347.9 L765.2,157.2 C765.2,154.4 767.5,152.1 770.3,152.1 C773.1,152.1 775.4,154.4 775.4,157.2 L775.4,348 C775.4,350.8 773.1,353 770.3,353 L770.3,353 Z" id="Shape" sketch:type="MSShapeGroup"></path>
            <path d="M685.9,257.7 L618.4,257.7 C615.6,257.7 613.3,255.4 613.3,252.6 C613.3,249.8 615.6,247.5 618.4,247.5 L685.9,247.5 C688.7,247.5 691,249.8 691,252.6 C690.9,255.4 688.7,257.7 685.9,257.7 L685.9,257.7 Z" id="Shape" sketch:type="MSShapeGroup"></path>
            <path d="M838.6,257.7 L770.3,257.7 C767.5,257.7 765.2,255.4 765.2,252.6 C765.2,249.8 767.5,247.5 770.3,247.5 L838.6,247.5 C841.4,247.5 843.7,249.8 843.7,252.6 C843.7,255.4 841.4,257.7 838.6,257.7 L838.6,257.7 Z" id="Shape" sketch:type="MSShapeGroup"></path>
            <path d="M685.9,214.2 L643.5,214.2 C640.7,214.2 638.4,211.9 638.4,209.1 C638.4,206.3 640.7,204 643.5,204 L685.9,204 C688.7,204 691,206.3 691,209.1 C691,211.9 688.7,214.2 685.9,214.2 L685.9,214.2 Z" id="Shape" sketch:type="MSShapeGroup"></path>
            <path d="M813.5,214.2 L772.6,214.2 C769.8,214.2 767.5,211.9 767.5,209.1 C767.5,206.3 769.8,204 772.6,204 L813.5,204 C816.3,204 818.6,206.3 818.6,209.1 C818.6,211.9 816.3,214.2 813.5,214.2 L813.5,214.2 Z" id="Shape" sketch:type="MSShapeGroup"></path>
            <path d="M685.9,297.7 L643.5,297.7 C640.7,297.7 638.4,295.4 638.4,292.6 C638.4,289.8 640.7,287.5 643.5,287.5 L685.9,287.5 C688.7,287.5 691,289.8 691,292.6 C690.9,295.4 688.7,297.7 685.9,297.7 L685.9,297.7 Z" id="Shape" sketch:type="MSShapeGroup"></path>
            <path d="M813.5,297.7 L770.3,297.7 C767.5,297.7 765.2,295.4 765.2,292.6 C765.2,289.8 767.5,287.5 770.3,287.5 L813.5,287.5 C816.3,287.5 818.6,289.8 818.6,292.6 C818.6,295.4 816.3,297.7 813.5,297.7 L813.5,297.7 Z" id="Shape" sketch:type="MSShapeGroup"></path>
            <path d="M729.5,273 C723.3,273 718.2,267.9 718.2,261.7 C718.2,255.5 723.3,250.4 729.5,250.4 C735.7,250.4 740.8,255.5 740.8,261.7 C740.8,267.9 735.7,273 729.5,273 L729.5,273 Z M729.5,260.6 C728.9,260.6 728.4,261.1 728.4,261.7 C728.4,262.3 728.9,262.8 729.5,262.8 C730.1,262.8 730.6,262.3 730.6,261.7 C730.6,261.1 730.1,260.6 729.5,260.6 L729.5,260.6 Z" id="Shape" sketch:type="MSShapeGroup"></path>
            <path d="M579.8,28.6 C579.8,26.9 581.2,25.5 582.9,25.5 L583.5,25.5 C585,25.5 585.9,26.2 586.7,27.3 L598.7,43.1 L598.7,28.4 C598.7,26.7 600.1,25.3 601.8,25.3 C603.5,25.3 604.9,26.7 604.9,28.4 L604.9,51 C604.9,52.7 603.5,54.1 601.8,54.1 L601.6,54.1 C600.1,54.1 599.2,53.4 598.4,52.3 L585.9,35.9 L585.9,51.1 C585.9,52.8 584.5,54.2 582.8,54.2 C581.1,54.2 579.7,52.8 579.7,51.1 L579.7,28.6 L579.8,28.6 Z M610.5,39.9 C610.5,31.8 616.9,25.2 625.6,25.2 C634.4,25.2 640.6,31.7 640.6,39.8 L640.6,39.9 C640.6,48 634.2,54.6 625.5,54.6 C616.8,54.4 610.5,47.9 610.5,39.9 L610.5,39.9 Z M634.2,39.9 C634.2,35 630.6,30.9 625.6,30.9 C620.6,30.9 617.1,34.9 617.1,39.7 L617.1,39.8 C617.1,44.7 620.7,48.7 625.7,48.7 C630.7,48.7 634.2,44.7 634.2,39.9 L634.2,39.9 Z M646.2,28.7 C646.2,27 647.6,25.6 649.3,25.6 L657.2,25.6 C666.1,25.6 672.3,31.7 672.3,39.7 L672.3,39.8 C672.3,47.8 666.1,54 657.2,54 L649.3,54 C647.6,54 646.2,52.6 646.2,50.9 L646.2,28.7 L646.2,28.7 Z M657.3,48.3 C662.4,48.3 665.8,44.9 665.8,39.8 L665.8,39.7 C665.8,34.7 662.4,31.1 657.3,31.1 L652.5,31.1 L652.5,48.2 L657.3,48.2 L657.3,48.3 Z M677.9,50.8 L677.9,28.7 C677.9,27 679.3,25.6 681,25.6 L696.7,25.6 C698.2,25.6 699.5,26.9 699.5,28.4 C699.5,29.9 698.2,31.2 696.7,31.2 L684.1,31.2 L684.1,37 L695,37 C696.5,37 697.8,38.3 697.8,39.8 C697.8,41.3 696.5,42.6 695,42.6 L684.2,42.6 L684.2,48.6 L697,48.6 C698.5,48.6 699.8,49.9 699.8,51.4 C699.8,52.9 698.5,54.2 697,54.2 L681.1,54.2 C679.3,54 677.9,52.6 677.9,50.8 L677.9,50.8 Z M704.5,51 C703.8,50.5 703.3,49.6 703.3,48.7 C703.3,47.1 704.6,45.8 706.2,45.8 C707,45.8 707.6,46.1 708,46.4 C710.1,48 712.5,49 715.3,49 C717.9,49 719.4,48 719.4,46.3 L719.4,46.2 C719.4,44.6 718.4,43.8 713.7,42.6 C708,41.1 704.3,39.6 704.3,33.9 L704.3,33.8 C704.3,28.7 708.4,25.2 714.2,25.2 C717.6,25.2 720.6,26.1 723.2,27.7 C723.9,28.1 724.6,29 724.6,30.2 C724.6,31.8 723.3,33.1 721.7,33.1 C721.1,33.1 720.6,32.9 720.1,32.7 C718,31.5 716.1,30.8 714.1,30.8 C711.7,30.8 710.5,31.9 710.5,33.3 L710.5,33.4 C710.5,35.3 711.7,35.9 716.6,37.1 C722.4,38.6 725.6,40.7 725.6,45.6 L725.6,45.7 C725.6,51.3 721.3,54.5 715.2,54.5 C711.5,54.4 707.7,53.2 704.5,51 L704.5,51 Z M729.8,39.9 C729.8,31.8 735.9,25.2 744.6,25.2 C748.9,25.2 751.7,26.3 754.1,28.1 C754.7,28.6 755.3,29.5 755.3,30.6 C755.3,32.3 753.9,33.6 752.2,33.6 C751.3,33.6 750.8,33.3 750.3,33 C748.6,31.7 746.7,31 744.5,31 C739.7,31 736.3,35 736.3,39.8 L736.3,39.9 C736.3,44.8 739.7,48.8 744.5,48.8 C747.1,48.8 748.9,48 750.7,46.6 C751.2,46.2 751.8,45.9 752.6,45.9 C754.2,45.9 755.5,47.2 755.5,48.8 C755.5,49.8 755,50.5 754.4,51 C751.8,53.2 748.8,54.6 744.3,54.6 C736,54.4 729.8,48 729.8,39.9 L729.8,39.9 Z M761,28.5 C761,26.8 762.4,25.4 764.1,25.4 C765.8,25.4 767.2,26.8 767.2,28.5 L767.2,36.8 L778.7,36.8 L778.7,28.5 C778.7,26.8 780.1,25.4 781.8,25.4 C783.5,25.4 784.9,26.8 784.9,28.5 L784.9,51.1 C784.9,52.8 783.5,54.2 781.8,54.2 C780.1,54.2 778.7,52.8 778.7,51.1 L778.7,42.6 L767.2,42.6 L767.2,51.1 C767.2,52.8 765.8,54.2 764.1,54.2 C762.4,54.2 761,52.8 761,51.1 L761,28.5 L761,28.5 Z M790.5,39.9 C790.5,31.8 796.9,25.2 805.6,25.2 C814.4,25.2 820.6,31.7 820.6,39.8 L820.6,39.9 C820.6,48 814.2,54.6 805.5,54.6 C796.8,54.4 790.5,47.9 790.5,39.9 L790.5,39.9 Z M814.2,39.9 C814.2,35 810.6,30.9 805.6,30.9 C800.6,30.9 797.1,34.9 797.1,39.7 L797.1,39.8 C797.1,44.7 800.7,48.7 805.7,48.7 C810.7,48.7 814.2,44.7 814.2,39.9 L814.2,39.9 Z M825,39.9 C825,31.8 831.4,25.2 840.1,25.2 C848.9,25.2 855.1,31.7 855.1,39.8 L855.1,39.9 C855.1,48 848.7,54.6 840,54.6 C831.3,54.4 825,47.9 825,39.9 L825,39.9 Z M848.6,39.9 C848.6,35 845,30.9 840,30.9 C835,30.9 831.5,34.9 831.5,39.7 L831.5,39.8 C831.5,44.7 835.1,48.7 840.1,48.7 C845.1,48.7 848.6,44.7 848.6,39.9 L848.6,39.9 Z M860.7,28.5 C860.7,26.8 862.1,25.4 863.8,25.4 C865.5,25.4 866.9,26.8 866.9,28.5 L866.9,48.3 L878.4,48.3 C880,48.3 881.2,49.6 881.2,51.1 C881.2,52.6 879.9,53.9 878.4,53.9 L863.7,53.9 C862,53.9 860.6,52.5 860.6,50.8 L860.6,28.5 L860.7,28.5 Z" id="Shape" sketch:type="MSShapeGroup"></path>
            <path d="M928,106 L523.7,106 C520.9,106 518.6,103.7 518.6,100.9 C518.6,98.1 520.9,95.8 523.7,95.8 L928,95.8 C930.8,95.8 933.1,98.1 933.1,100.9 C933.1,103.7 930.8,106 928,106 L928,106 Z" id="Shape" sketch:type="MSShapeGroup"></path>
            <path d="M229.2,133.9 L183,133.9 C180.2,133.9 177.9,131.6 177.9,128.8 C177.9,126 180.2,123.7 183,123.7 L229.2,123.7 C232,123.7 234.3,126 234.3,128.8 C234.3,131.6 232,133.9 229.2,133.9 L229.2,133.9 Z" id="Shape" sketch:type="MSShapeGroup"></path>
            <path d="M1263.6,133.9 L1217.4,133.9 C1214.6,133.9 1212.3,131.6 1212.3,128.8 C1212.3,126 1214.6,123.7 1217.4,123.7 L1263.6,123.7 C1266.4,123.7 1268.7,126 1268.7,128.8 C1268.7,131.6 1266.4,133.9 1263.6,133.9 L1263.6,133.9 Z" id="Shape" sketch:type="MSShapeGroup"></path>
        </g>
    </g>
</svg>