<?xml version="1.0" encoding="utf-8"?>
<!-- Generator: Adobe Illustrator 16.0.0, SVG Export Plug-In . SVG Version: 6.00 Build 0)  -->
<!DOCTYPE svg PUBLIC "-//W3C//DTD SVG 1.1//EN" "http://www.w3.org/Graphics/SVG/1.1/DTD/svg11.dtd">
<svg version="1.1" id="Layer_1" xmlns="http://www.w3.org/2000/svg" xmlns:xlink="http://www.w3.org/1999/xlink" x="0px" y="0px"
	 width="600px" height="277px" viewBox="0 164.5 600 277" enable-background="new 0 164.5 600 277" xml:space="preserve">
<g>
	<g>
		<path id="s_2_" fill="#E5E1CF" d="M207.439,309.611c-5.109-2.822-7.797-5.107-7.797-8.334c0-4.168,3.63-6.722,9.411-6.722
			c6.722,0,12.637,2.823,12.637,2.823l4.706-14.385c0,0-4.302-3.361-17.074-3.361c-17.746,0-30.114,10.218-30.114,24.468
			c0,8.065,5.781,14.252,13.444,18.688c6.184,3.496,8.335,6.05,8.335,9.68c0,3.898-3.092,6.991-8.873,6.991
			c-8.604,0-16.67-4.437-16.67-4.437l-4.974,14.385c0,0,7.529,4.975,20.031,4.975c18.284,0,31.324-9.008,31.324-25.141
			C222.093,320.367,215.371,314.184,207.439,309.611z"/>
		<path id="h_2_" fill="#E5E1CF" d="M280.305,279.364c-9.007,0-15.998,4.302-21.51,10.755l-0.269-0.134l7.797-40.87h-20.3
			L226.26,353.036h20.3l6.722-35.491c2.688-13.443,9.545-21.646,15.998-21.646c4.571,0,6.319,3.092,6.319,7.528
			c0,2.824-0.269,6.185-0.941,9.009l-7.663,40.733h20.3l7.932-41.944c0.941-4.437,1.479-9.68,1.479-13.31
			C296.841,286.22,290.791,279.364,280.305,279.364z"/>
		<path id="o_1_" fill="#E5E1CF" d="M342.818,279.364c-24.469,0-40.734,22.048-40.734,46.649c0,15.729,9.68,28.502,27.963,28.502
			c24.064,0,40.197-21.511,40.197-46.649C370.379,293.211,361.909,279.364,342.818,279.364z M332.87,338.785
			c-6.99,0-9.813-5.915-9.813-13.309c0-11.697,6.051-30.652,17.073-30.652c7.26,0,9.545,6.184,9.545,12.234
			C349.675,319.695,343.625,338.785,332.87,338.785z"/>
		<path id="p_1_" fill="#E5E1CF" d="M422.406,279.364c-13.713,0-21.51,12.099-21.51,12.099h-0.271l1.21-10.889h-18.015
			c-0.94,7.394-2.555,18.552-4.167,27.021l-14.116,74.479h20.3l5.646-30.113h0.402c0,0,4.168,2.688,11.965,2.688
			c23.932,0,39.525-24.469,39.525-49.205C443.379,291.598,437.329,279.364,422.406,279.364z M403.047,339.189
			c-5.243,0-8.335-2.959-8.335-2.959l3.361-18.955c2.42-12.637,9.007-21.107,15.998-21.107c6.185,0,8.065,5.781,8.065,11.159
			C422.138,320.367,414.34,339.189,403.047,339.189z"/>
		<path id="dot_2_" fill="#E5E1CF" d="M472.418,250.056c-6.453,0-11.696,5.108-11.696,11.831c0,6.05,3.765,10.217,9.545,10.217h0.27
			c6.319,0,11.831-4.302,11.966-11.831C482.635,254.358,478.602,250.056,472.418,250.056z"/>
		<polygon id="i_2_" fill="#E5E1CF" points="443.917,353.036 464.352,353.036 478.198,280.977 457.629,280.977 		"/>
		<path id="f_2_" fill="#E5E1CF" d="M529.823,280.708h-14.116l0.672-3.361c1.21-6.991,5.243-13.175,12.1-13.175
			c3.631,0,6.453,1.076,6.453,1.076l4.033-15.864c0,0-3.495-1.748-11.023-1.748c-7.26,0-14.386,2.017-19.896,6.722
			c-6.991,5.916-10.218,14.385-11.831,22.989l-0.537,3.361h-9.411l-2.957,15.326h9.41l-10.755,56.868h20.3l10.756-56.868H527
			L529.823,280.708z"/>
		<path id="y_2_" fill="#E5E1CF" d="M578.759,280.977c0,0-12.771,31.996-18.418,49.473h-0.27
			c-0.403-5.646-4.975-49.473-4.975-49.473h-21.376l12.234,66.144c0.269,1.479,0.134,2.42-0.403,3.361
			c-2.42,4.569-6.318,9.006-11.023,12.232c-3.766,2.823-8.066,4.571-11.428,5.78l5.646,17.209
			c4.168-0.94,12.638-4.304,19.896-11.024c9.276-8.738,17.88-22.048,26.619-40.33l24.871-53.374L578.759,280.977L578.759,280.977z"
			/>
	</g>
	<g>
		<path fill="#E5E1CF" d="M96.796,381.402l50.28-10.889c0,0-18.149-122.744-18.284-123.551c-0.135-0.807-0.807-1.344-1.479-1.344
			s-13.444-0.941-13.444-0.941s-8.873-8.873-9.949-9.814c-0.269-0.269-0.538-0.403-0.807-0.538L96.796,381.402z"/>
		<path fill="#E5E1CF" d="M100.963,234.058c-0.134,0-0.403,0.135-0.538,0.135c-0.135,0-2.017,0.538-4.974,1.479
			c-2.958-8.604-8.201-16.536-17.477-16.536c-0.269,0-0.538,0-0.807,0c-2.689-3.361-5.916-4.84-8.739-4.84
			c-21.645,0-31.996,27.022-35.223,40.735c-8.335,2.554-14.385,4.437-15.057,4.705c-4.706,1.479-4.84,1.613-5.378,6.05
			C12.234,269.012,0,363.791,0,363.791l94.51,17.746L100.963,234.058z M76.361,240.646c0,0.269,0,0.672,0,0.941
			c-5.243,1.613-11.024,3.361-16.67,5.108c3.227-12.368,9.276-18.418,14.519-20.703C75.555,229.487,76.361,234.192,76.361,240.646z
			 M67.757,220.076c0.941,0,1.882,0.269,2.823,0.941c-6.856,3.227-14.385,11.427-17.477,27.829
			c-4.571,1.479-9.008,2.823-13.175,4.033C43.558,240.376,52.297,220.076,67.757,220.076z M71.521,293.076
			c0,0-5.646-2.958-12.369-2.958c-10.083,0-10.486,6.319-10.486,7.932c0,8.604,22.585,11.966,22.585,32.267
			c0,15.998-10.083,26.215-23.795,26.215c-16.402,0-24.737-10.217-24.737-10.217l4.437-14.521c0,0,8.604,7.396,15.864,7.396
			c4.705,0,6.722-3.766,6.722-6.453c0-11.293-18.552-11.832-18.552-30.385c0-15.595,11.158-30.786,33.878-30.786
			c8.738,0,13.041,2.554,13.041,2.554L71.521,293.076z M80.125,225.05c4.84,0.538,7.932,6.05,9.948,12.234
			c-2.42,0.807-5.108,1.613-8.066,2.555c0-0.538,0-1.076,0-1.748C82.008,232.848,81.335,228.546,80.125,225.05z"/>
	</g>
</g>
</svg>
